<svg xmlns="http://www.w3.org/2000/svg" viewBox="0 0 512.000000 512.000000"><g transform="translate(0.000000,512.000000) scale(0.100000,-0.100000)" fill="#000000" stroke="none"><path d="M222 4393 c2 -10 211 -843 463 -1851 l459 -1832 315 2 315 3 391 1592 c214 876 392 1593 395 1593 3 0 176 -703 384 -1563 209 -859 383 -1577 388 -1595 l9 -32 314 0 314 0 10 38 c75 286 911 3634 911 3646 0 14 -26 16 -249 16 -229 0 -250 -1 -255 -17 -2 -10 -176 -711 -386 -1558 -210 -847 -383 -1541 -384 -1543 -2 -1 -178 699 -392 1555 l-389 1558 -280 0 -280 0 -385 -1552 c-212 -854 -387 -1553 -390 -1553 -3 0 -179 699 -391 1553 l-385 1552 -253 3 c-238 2 -253 1 -249 -15z"/></g></svg>